{"accessors":[{"bufferView":0,"componentType":5126,"count":1073,"max":[6.193483352661133,3.460355043411255,0.45325222611427307],"min":[-6.193483352661133,-5.907846450805664,-1.6365745067596436],"normalized":false,"type":"VEC3"},{"bufferView":1,"componentType":5126,"count":1073,"max":[1.0,1.0,0.5799441337585449,1.0],"min":[-0.9999009966850281,-0.19025097787380219,-0.5777845978736877,-1.0],"normalized":false,"type":"VEC4"},{"bufferView":2,"componentType":5126,"count":1073,"max":[1.0,0.8550280928611755,1.0],"min":[-1.0,-0.9251627326011658,-0.9990236759185791],"normalized":false,"type":"VEC3"},{"bufferView":3,"componentType":5126,"count":1073,"max":[1.0,1.0],"min":[0.0,0.0],"normalized":false,"type":"VEC2"},{"bufferView":4,"componentType":5123,"count":1716,"max":[1072],"min":[0],"normalized":false,"type":"SCALAR"},{"bufferView":5,"componentType":5126,"count":1716,"max":[6.19350004196167,3.460399866104126,0.45329999923706055],"min":[-6.19350004196167,-5.90779972076416,-1.6366000175476074],"normalized":false,"type":"VEC3"},{"bufferView":6,"componentType":5123,"count":1716,"max":[1715],"min":[0],"normalized":false,"type":"SCALAR"}],"asset":{"generator":"Godot Engine v4.7.1.stable.steam@a13da4feb8d8aefc283c3763d33a2f170a18d541","version":"2.0"},"bufferViews":[{"buffer":0,"byteLength":12876,"byteStride":12,"target":34962},{"buffer":0,"byteLength":17168,"byteOffset":12876,"byteStride":16,"target":34962},{"buffer":0,"byteLength":12876,"byteOffset":30044,"byteStride":12,"target":34962},{"buffer":0,"byteLength":8584,"byteOffset":42920,"byteStride":8,"target":34962},{"buffer":0,"byteLength":3432,"byteOffset":51504,"target":34963},{"buffer":0,"byteLength":20592,"byteOffset":54936,"byteStride":12,"target":34962},{"buffer":0,"byteLength":3432,"byteOffset":75528,"target":34963}],"buffers":[{"byteLength":78960,"uri":"LampadaDeParede0.bin"}],"extensions":{"KHR_lights_punctual":{"lights":[{"color":[0.5332764387130737,0.18447498977184296,0.0],"range":5.0,"type":"point"},{"color":[0.5333770513534546,0.18293632566928864,0.0],"range":5.0,"type":"point"}]},"OMI_physics_shape":{"shapes":[{"trimesh":{"mesh":1},"type":"trimesh"}]}},"extensionsUsed":["GODOT_single_root","KHR_lights_punctual","OMI_physics_body","OMI_physics_shape"],"materials":[{"pbrMetallicRoughness":{"baseColorFactor":[1.0,1.0,1.0,1.0],"metallicFactor":0.0,"roughnessFactor":1.0}}],"meshes":[{"name":"Cenarios_Cube_008","primitives":[{"attributes":{"NORMAL":2,"POSITION":0,"TANGENT":1,"TEXCOORD_0":3},"indices":4,"material":0,"mode":4}]},{"primitives":[{"attributes":{"POSITION":5},"indices":6,"mode":4}]}],"nodes":[{"children":[1,2,3],"extensions":{"OMI_physics_body":{"motion":{"type":"static"}}},"name":"StaticBody3D"},{"mesh":0,"name":"LampadaParede","scale":[-0.20192810893058777,-0.15495432913303375,-0.6923909783363342]},{"extensions":{"OMI_physics_body":{"collider":{"shape":0}}},"name":"CollisionShape3D","scale":[-0.20192810893058777,-0.15495432913303375,-0.6923909783363342]},{"children":[4,5],"name":"Luz"},{"extensions":{"KHR_lights_punctual":{"light":0}},"name":"OmniLight3D","translation":[0.658977746963501,0.6421276330947876,0.958187460899353]},{"extensions":{"KHR_lights_punctual":{"light":1}},"name":"OmniLight3D2","translation":[-0.5774996280670166,0.6421275734901428,0.958187460899353]}],"scene":0,"scenes":[{"nodes":[0]}]}